<?xml version="1.0" encoding="UTF-8" standalone="no"?>
<svg
   xmlns:dc="http://purl.org/dc/elements/1.1/"
   xmlns:cc="http://creativecommons.org/ns#"
   xmlns:rdf="http://www.w3.org/1999/02/22-rdf-syntax-ns#"
   xmlns:svg="http://www.w3.org/2000/svg"
   xmlns="http://www.w3.org/2000/svg"
   id="svg8"
   version="1.1"
   viewBox="0 0 210 297"
   height="297mm"
   width="210mm">
  <defs
     id="defs2" />
  <metadata
     id="metadata5">
    <rdf:RDF>
      <cc:Work
         rdf:about="">
        <dc:format>image/svg+xml</dc:format>
        <dc:type
           rdf:resource="http://purl.org/dc/dcmitype/StillImage" />
        <dc:title></dc:title>
      </cc:Work>
    </rdf:RDF>
  </metadata>
  <g
     id="layer1">
    <path
       transform="scale(0.26458333)"
       d="M 349.63997 689.67024 C 343.34679 687.77189 338.53157 685.66681 335.52622 683.34919 C 301.61551 667.38458 273.88101 571.01536 237.15204 551.59811 C 205.07118 534.63816 123.01227 565.36259 107.15759 548.0847 C 83.150705 521.92281 73.416063 484.57896 75.537319 474.30405 L 75.537319 474.30405 C 77.954528 462.59561 139.83907 424.14734 175.66818 416.33358 C 197.62261 411.54566 209.36498 406.88082 224.60336 406.43237 "
       style="fill:none;stroke:#8800aa;stroke-width:11.3386;stroke-linecap:round;stroke-linejoin:miter;stroke-miterlimit:4;stroke-dasharray:none;stroke-opacity:1"
       id="path833" />
    <path
       transform="scale(0.26458333)"
       d="m 597.9098,694.82843 c -57.72713,5.29801 -147.75756,9.82903 -208.2201,2.37162"
       style="fill:none;stroke:#8800aa;stroke-width:11.3386;stroke-linecap:round;stroke-linejoin:miter;stroke-miterlimit:4;stroke-dasharray:none;stroke-opacity:1"
       id="path884" />
    <path
       transform="scale(0.26458333)"
       d="m 261.3703,412.37588 c 26.53824,10.06648 55.76783,34.78123 104.01951,30.30788 92.09662,5.87694 198.62869,-55.24787 274.04232,-22.83685 58.51605,24.49364 121.33958,46.51554 131.02118,92.6175 0,0 0.0664,50.98569 -8.05342,90.07742 -5.77485,27.80221 -67.94472,64.22298 -99.07974,80.88906"
       style="fill:none;stroke:#8800aa;stroke-width:11.3386;stroke-linecap:round;stroke-linejoin:miter;stroke-miterlimit:4;stroke-dasharray:none;stroke-opacity:1"
       id="path891" />
    <ellipse
       ry="1.3943661"
       rx="3.2535212"
       cy="115.8753"
       cx="53.393398"
       id="path853"
       style="fill:none;stroke:#8800aa;stroke-width:3;stroke-linecap:round;stroke-miterlimit:4;stroke-dasharray:none" />
    <path
       id="path857"
       d="m 175.50345,180.82442 c -6.02364,7.56429 -6.22886,13.49397 -7.94672,25.65109 l -11.85251,-0.10932 c 0,0 5.6946,-4.98038 6.46615,-8.40709 1.29587,-5.75546 -2.7314,-9.60713 -3.81426,-15.40644 -0.79675,-4.26705 -1.80548,-8.13392 -1.25752,-12.43999 0.20263,-1.59234 1.03889,-4.70215 1.03889,-4.70215"
       style="fill:none;stroke:#8800aa;stroke-width:3;stroke-linecap:round;stroke-linejoin:round;stroke-miterlimit:4;stroke-dasharray:none;stroke-opacity:1" />
    <path
       id="path859"
       d="m 174.76056,186.38028 c 0,0 5.97104,8.23183 6.04225,13.01408 0.0351,2.35956 -2.78873,6.50705 -2.78873,6.50705 l 9.58283,-0.10932 c 0,0 -1.67726,-13.22741 -1.68142,-19.8766 -0.002,-3.7312 0.92958,-11.15493 0.92958,-11.15493"
       style="fill:none;stroke:#8800aa;stroke-width:3;stroke-linecap:round;stroke-linejoin:round;stroke-miterlimit:4;stroke-dasharray:none;stroke-opacity:1" />
    <path
       id="path863"
       d="m 91.563377,178.82098 c -0.07457,-0.14915 4.619188,12.55533 1.749839,20.95638 -0.833422,2.44014 -5.932936,7.05362 -5.932936,7.05362 l 12.549296,-0.46479 c 0,0 2.709804,-14.62214 3.253524,-22.0228 0.15424,-2.09939 0,-6.31515 0,-6.31515"
       style="fill:none;stroke:#8800aa;stroke-width:3;stroke-linecap:round;stroke-linejoin:round;stroke-miterlimit:4;stroke-dasharray:none;stroke-opacity:1" />
    <path
       id="path865"
       d="m 103.1831,184.34339 c 0,0 5.481,9.81826 4.93494,15.0785 -0.27592,2.65793 -4.00536,6.94431 -4.00536,6.94431 l 9.59495,-0.20021 c -0.62889,-6.8169 1.19087,-13.89839 -0.29918,-20.71529"
       style="fill:none;stroke:#8800aa;stroke-width:3;stroke-linecap:round;stroke-linejoin:round;stroke-miterlimit:4;stroke-dasharray:none;stroke-opacity:1" />
    <path
       id="path867"
       d="m 39.900271,145.82256 c -0.124666,0.10195 3.720249,-2.79565 3.157574,-5.16694"
       style="fill:none;stroke:#8800aa;stroke-width:3;stroke-linecap:round;stroke-linejoin:miter;stroke-miterlimit:4;stroke-dasharray:none;stroke-opacity:1" />
    <path
       transform="matrix(0.12406317,0,0,0.08946321,18.690395,110.54615)"
       d="M 44.422948,196.29975 C 18.569112,220.16483 18.569112,220.16483 10.828264,185.84221 3.0874172,151.51959 3.0874172,151.51959 36.682101,161.97713 c 33.594684,10.45754 33.594684,10.45754 7.740847,34.32262 z"
       id="path869"
       style="fill:none;stroke:#8800aa;stroke-width:32.2514;stroke-linecap:round;stroke-linejoin:round;stroke-miterlimit:4;stroke-dasharray:none" />
    <path
       id="path877"
       d="m 60.615669,110.74847 c 0,0 -1.028654,-9.36589 2.066432,-11.083473 1.781806,-0.988799 5.520281,0.431813 6.836003,1.987903 2.081196,2.46141 -2.652906,12.74951 -2.652906,12.74951"
       style="fill:none;stroke:#8800aa;stroke-width:3;stroke-linecap:round;stroke-linejoin:miter;stroke-miterlimit:4;stroke-dasharray:none;stroke-opacity:1" />
  </g>
</svg>
