<?xml version="1.0" encoding="UTF-8" standalone="no"?>
<svg
   xmlns:dc="http://purl.org/dc/elements/1.1/"
   xmlns:cc="http://creativecommons.org/ns#"
   xmlns:rdf="http://www.w3.org/1999/02/22-rdf-syntax-ns#"
   xmlns:svg="http://www.w3.org/2000/svg"
   xmlns="http://www.w3.org/2000/svg"
   xmlns:sodipodi="http://sodipodi.sourceforge.net/DTD/sodipodi-0.dtd"
   xmlns:inkscape="http://www.inkscape.org/namespaces/inkscape"
   xml:space="preserve"
   viewBox="0 0 484.4346 536.33075"
   y="0px"
   x="0px"
   id="Layer_1"
   version="1.1"
   sodipodi:docname="capybara-face-plain-outline.svg"
   inkscape:version="0.92.5 (2060ec1f9f, 2020-04-08)"
   width="484.4346"
   height="536.33075"><sodipodi:namedview
   pagecolor="#ffffff"
   bordercolor="#666666"
   borderopacity="1"
   objecttolerance="10"
   gridtolerance="10"
   guidetolerance="10"
   inkscape:pageopacity="0"
   inkscape:pageshadow="2"
   inkscape:window-width="1920"
   inkscape:window-height="1009"
   id="namedview16"
   showgrid="false"
   inkscape:zoom="1.057913"
   inkscape:cx="365.61699"
   inkscape:cy="265.95778"
   inkscape:window-x="0"
   inkscape:window-y="27"
   inkscape:window-maximized="0"
   inkscape:current-layer="Layer_1"
   fit-margin-top="10"
   fit-margin-left="10"
   fit-margin-right="10"
   fit-margin-bottom="10" /><metadata
   id="metadata925">
    <rdf:RDF>
        <cc:Work
   rdf:about="">
            <dc:format>image/svg+xml</dc:format>
            <dc:type
   rdf:resource="http://purl.org/dc/dcmitype/StillImage" />
            <dc:title></dc:title>
        </cc:Work>
    </rdf:RDF>
</metadata><defs
   id="defs923" />
<path
   style="color:#000000;font-style:normal;font-variant:normal;font-weight:normal;font-stretch:normal;font-size:medium;line-height:normal;font-family:sans-serif;font-variant-ligatures:normal;font-variant-position:normal;font-variant-caps:normal;font-variant-numeric:normal;font-variant-alternates:normal;font-feature-settings:normal;text-indent:0;text-align:start;text-decoration:none;text-decoration-line:none;text-decoration-style:solid;text-decoration-color:#000000;letter-spacing:normal;word-spacing:normal;text-transform:none;writing-mode:lr-tb;direction:ltr;text-orientation:mixed;dominant-baseline:auto;baseline-shift:baseline;text-anchor:start;white-space:normal;shape-padding:0;clip-rule:nonzero;display:inline;overflow:visible;visibility:visible;opacity:1;isolation:auto;mix-blend-mode:normal;color-interpolation:sRGB;color-interpolation-filters:linearRGB;solid-color:#000000;solid-opacity:1;vector-effect:none;fill:none;fill-opacity:1;fill-rule:nonzero;stroke:#800080;stroke-width:0.37795275;stroke-linecap:butt;stroke-linejoin:miter;stroke-miterlimit:4;stroke-dasharray:none;stroke-dashoffset:0;stroke-opacity:1;color-rendering:auto;image-rendering:auto;shape-rendering:auto;text-rendering:auto;enable-background:accumulate"
   d="m 206.17531,186.31951 c -16.12225,0 -29.438,11.12574 -38.12305,26.2207 -8.68505,15.09497 -13.61914,34.91584 -13.61914,56.73633 v 115.60547 c 0,9.06528 0.86404,17.7775 2.48242,25.95703 a 9.449764,9.449764 0 0 0 0.57813,2.75 c 2.31708,10.42376 5.88928,19.91385 10.55859,28.0293 8.68505,15.09497 22.0008,26.21875 38.12305,26.21875 h 63.44531 c 16.12225,0 29.43799,-11.12378 38.12305,-26.21875 8.68505,-15.09497 13.61914,-34.91584 13.61914,-56.73633 V 269.27654 c 0,-21.82049 -4.93409,-41.64136 -13.61914,-56.73633 -8.68506,-15.09496 -22.0008,-26.2207 -38.12305,-26.2207 z m 0,18.89844 h 63.44531 c 7.30829,0 15.14013,5.26807 21.74414,16.74609 6.60401,11.47803 11.10156,28.40979 11.10156,47.3125 v 115.60547 c 0,5.45802 -0.38574,10.74353 -1.07812,15.78906 -10.19705,-0.23233 -20.94636,-0.58853 -30.53516,-2.29687 -9.38629,-1.67227 -17.0709,-4.63737 -22.59766,-9.24219 v -30.67773 a 9.449764,9.449764 0 0 0 -9.58984,-9.58203 9.449764,9.449764 0 0 0 -1.06055,0.0801 9.449764,9.449764 0 0 0 -1.29101,-0.0801 9.449764,9.449764 0 0 0 -9.30664,9.58203 v 30.67773 c -5.52643,4.60457 -13.20986,7.57 -22.59571,9.24219 -9.4199,1.67825 -19.96823,2.05216 -30.00585,2.28515 -0.69136,-5.042 -1.07618,-10.32355 -1.07618,-15.77734 V 269.27654 c 0,-18.90271 4.49756,-35.83447 11.10157,-47.3125 6.604,-11.47802 14.43585,-16.74609 21.74414,-16.74609 z m 31.45703,199.86719 c 8.72121,6.61409 19.38769,10.01858 29.90625,11.89257 10.01369,1.78406 20.20127,2.27055 29.47851,2.50586 -1.61244,4.72498 -3.52039,9.00553 -5.65234,12.71094 -6.60401,11.47803 -14.43585,16.7461 -21.74414,16.7461 h -63.44531 c -7.30829,0 -15.14014,-5.26807 -21.74414,-16.7461 -2.13405,-3.70905 -4.04477,-7.99411 -5.65821,-12.72461 9.13688,-0.24074 19.12839,-0.7418 28.95313,-2.49219 10.51905,-1.87408 21.18536,-5.27786 29.90625,-11.89257 z"
   id="rect933"
   inkscape:connector-curvature="0" /><path
   style="color:#000000;font-style:normal;font-variant:normal;font-weight:normal;font-stretch:normal;font-size:medium;line-height:normal;font-family:sans-serif;font-variant-ligatures:normal;font-variant-position:normal;font-variant-caps:normal;font-variant-numeric:normal;font-variant-alternates:normal;font-feature-settings:normal;text-indent:0;text-align:start;text-decoration:none;text-decoration-line:none;text-decoration-style:solid;text-decoration-color:#000000;letter-spacing:normal;word-spacing:normal;text-transform:none;writing-mode:lr-tb;direction:ltr;text-orientation:mixed;dominant-baseline:auto;baseline-shift:baseline;text-anchor:start;white-space:normal;shape-padding:0;clip-rule:nonzero;display:inline;overflow:visible;visibility:visible;opacity:1;isolation:auto;mix-blend-mode:normal;color-interpolation:sRGB;color-interpolation-filters:linearRGB;solid-color:#000000;solid-opacity:1;vector-effect:none;fill:none;fill-opacity:1;fill-rule:nonzero;stroke:#800080;stroke-width:0.37795275;stroke-linecap:butt;stroke-linejoin:miter;stroke-miterlimit:4;stroke-dasharray:none;stroke-dashoffset:0;stroke-opacity:1;color-rendering:auto;image-rendering:auto;shape-rendering:auto;text-rendering:auto;enable-background:accumulate"
   d="m 122.99952,10.200375 c -2.22542,-0.07588 -4.51064,0.22333 -6.81054,1.001953 -11.01748,3.729922 -17.138862,13.892331 -19.449222,23.886719 -2.31036,9.99439 -1.90312,20.800601 -0.67188,31.076172 1.81296,15.130329 5.670572,29.200608 7.587902,35.603511 -11.013312,16.52371 -17.422392,37.2413 -16.343762,62.41406 1.41325,32.98125 -16.522309,66.60309 -36.124995,100.55078 -19.602686,33.94769 -40.998048,67.97174 -40.998047,104.40625 2e-6,62.35279 27.013078,102.62469 67.71875,125.42579 38.390714,21.50436 87.969564,28.64593 139.880864,30.75585 l -0.0195,0.82032 h 9.66992 c 4.94943,0 9.8754,-0.0452 14.7793,-0.10938 4.90339,0.0642 9.82833,0.10938 14.77734,0.10938 h 9.66992 l -0.0195,-0.82032 c 51.91142,-2.10987 101.49017,-9.25151 139.88086,-30.75585 40.70564,-22.80107 67.71875,-63.07288 67.71875,-125.42579 0,-36.43451 -21.39536,-70.45856 -40.99805,-104.40625 -19.60268,-33.94769 -37.53823,-67.56953 -36.125,-100.55078 1.04682,-24.42994 -4.94962,-44.67357 -15.37109,-60.95116 2.00618,-6.849218 5.51134,-20.072135 7.2207,-34.337895 1.23124,-10.275571 1.63848,-21.081783 -0.67187,-31.076172 -2.31036,-9.994389 -8.43174,-20.156797 -19.44922,-23.886719 -2.29991,-0.778623 -4.58512,-1.077831 -6.81055,-1.001953 -6.67628,0.227633 -12.81626,3.82852 -17.21484,7.96875 -5.86478,5.520307 -10.40791,12.587615 -14.31055,19.677735 -3.43334,6.237518 -6.26831,12.492324 -8.41602,17.623047 -21.7688,-8.144901 -45.14803,-11.91154 -66.33398,-13.22461 l -0.0156,-0.623047 h -9.21289 c -1.46267,0 -2.90815,0.02258 -4.31835,0.04492 -1.41062,-0.02234 -2.85749,-0.04492 -4.32032,-0.04492 h -9.21289 l -0.0156,0.625 c -20.69506,1.282722 -43.483,4.907257 -64.81836,12.666016 -2.2115,-5.441414 -5.40599,-12.672931 -9.32617,-19.794922 -3.90265,-7.090119 -8.44578,-14.157428 -14.31055,-19.677735 -4.39858,-4.140229 -10.53855,-7.741117 -17.21485,-7.96875 z m -0.11132,18.791016 c 0.73603,0.02294 1.87294,0.582406 4.375,2.9375 3.33607,3.140127 7.32311,8.885132 10.70508,15.029297 3.54278,6.436349 6.48003,13.159438 8.49804,18.150391 -2.65869,1.339068 -5.27524,2.756643 -7.8418,4.259765 -7.18665,4.208912 -13.94483,9.173199 -20.0625,14.890625 -1.4175,-5.971416 -2.85952,-13.073166 -3.73046,-20.341796 -1.08487,-9.05399 -1.1526,-18.200592 0.32031,-24.572266 1.47291,-6.371674 3.3942,-8.990347 7.09765,-10.244141 0.1917,-0.0649 0.39333,-0.117021 0.63868,-0.109375 z m 239.26367,2.728516 c 0.24534,-0.0076 0.44698,0.04448 0.63867,0.109375 3.70347,1.253794 5.62475,3.872467 7.09766,10.244141 1.47291,6.371673 1.40518,15.516324 0.32031,24.570312 -0.7845,6.54719 -2.03616,12.981918 -3.3125,18.564453 -6.38102,-6.125431 -13.49949,-11.398747 -21.08594,-15.841797 -2.10429,-1.232385 -4.24492,-2.401823 -6.41211,-3.523437 1.96583,-4.721652 4.5819,-10.538982 7.67383,-16.15625 3.38196,-6.144165 7.36901,-11.889171 10.70508,-15.029297 2.50205,-2.355095 3.63897,-2.914562 4.375,-2.9375 z M 241.66945,63.288266 c 0.13737,0.0021 0.26026,0.0017 0.39843,0.0039 l 0.1504,0.002 0.15039,-0.002 c 0.13823,-0.0022 0.26102,-0.0018 0.39843,-0.0039 l 3.47461,0.109375 c 29.03373,0.919744 63.95845,7.015663 90.01758,22.277344 26.05914,15.261685 43.68124,38.098765 41.98438,77.699215 -1.7193,40.12399 18.90158,76.6301 38.63867,110.81055 19.73708,34.18044 38.46484,66.28473 38.46484,94.95507 0,57.16524 -22.2006,88.85596 -58.05469,108.93946 -35.85409,20.08349 -86.51185,27.16156 -140.58398,28.74609 l -9.38672,0.27539 0.002,0.0723 c -1.66047,-0.016 -3.31908,-0.0133 -4.98046,-0.0352 l -0.125,-0.002 -0.125,0.002 c -1.66197,0.0219 -3.32127,0.0192 -4.98243,0.0352 l 0.002,-0.0723 -9.38672,-0.27539 C 173.65402,505.2408 122.99624,498.1628 87.142098,478.07928 51.287971,457.99576 29.087416,426.30491 29.087414,369.13982 29.087413,340.46948 47.815169,308.36519 67.552257,274.18475 87.289348,240.0043 107.91023,203.49819 106.19093,163.3742 104.49408,123.774 122.11615,100.9367 148.17531,85.674985 174.23446,70.413266 209.15919,64.317489 238.19288,63.397641 Z"
   id="path935"
   inkscape:connector-curvature="0" /><path
   style="color:#000000;font-style:normal;font-variant:normal;font-weight:normal;font-stretch:normal;font-size:medium;line-height:normal;font-family:sans-serif;font-variant-ligatures:normal;font-variant-position:normal;font-variant-caps:normal;font-variant-numeric:normal;font-variant-alternates:normal;font-feature-settings:normal;text-indent:0;text-align:start;text-decoration:none;text-decoration-line:none;text-decoration-style:solid;text-decoration-color:#000000;letter-spacing:normal;word-spacing:normal;text-transform:none;writing-mode:lr-tb;direction:ltr;text-orientation:mixed;dominant-baseline:auto;baseline-shift:baseline;text-anchor:start;white-space:normal;shape-padding:0;clip-rule:nonzero;display:inline;overflow:visible;visibility:visible;opacity:1;isolation:auto;mix-blend-mode:normal;color-interpolation:sRGB;color-interpolation-filters:linearRGB;solid-color:#000000;solid-opacity:1;vector-effect:none;fill:none;fill-opacity:1;fill-rule:nonzero;stroke:#800080;stroke-width:0.37795275;stroke-linecap:butt;stroke-linejoin:miter;stroke-miterlimit:4;stroke-dasharray:none;stroke-dashoffset:0;stroke-opacity:1;color-rendering:auto;image-rendering:auto;shape-rendering:auto;text-rendering:auto;enable-background:accumulate"
   d="m 274.80226,264.13592 c -11.19681,0 -20.05112,8.86781 -21.44141,19.58008 -1.30954,1.15193 -2.8266,2.4439 -4.58789,3.78906 -4.54883,3.4741 -10.78748,5.86849 -10.57422,5.86914 0.11017,3.3e-4 -6.25128,-2.51767 -10.89062,-6.10352 -1.39642,-1.07932 -2.63995,-2.12286 -3.77734,-3.10937 -1.31408,-10.68652 -10.12202,-19.56641 -21.28126,-19.56641 -12.109,0 -21.45703,10.45358 -21.45703,22.32813 0,11.87454 9.34804,22.32812 21.45703,22.32812 5.75297,0 10.87952,-2.36279 14.67969,-6.11328 5.50628,4.28009 11.82676,9.10616 21.21289,9.13477 9.7185,0.0296 16.08716,-5.13654 21.68946,-9.4336 3.84872,3.8808 9.08443,6.33594 14.9707,6.33594 12.20753,0 21.63476,-10.53932 21.63476,-22.51953 0,-11.98021 -9.42723,-22.51953 -21.63476,-22.51953 z m 0,18.89843 c 1.25442,0 2.73828,1.16386 2.73828,3.6211 0,2.45724 -1.48386,3.62305 -2.73828,3.62305 -1.25442,0 -2.74024,-1.16581 -2.74024,-3.62305 0,-2.45724 1.48582,-3.62109 2.74024,-3.6211 z m -72.55274,0.45704 c 1.15589,0 2.56055,1.08006 2.56055,3.43164 0,2.35157 -1.40466,3.42968 -2.56055,3.42968 -1.15587,0 -2.56054,-1.07811 -2.56054,-3.42968 0,-2.35158 1.40467,-3.43164 2.56054,-3.43164 z"
   id="path979"
   inkscape:connector-curvature="0" /><path
   style="color:#000000;font-style:normal;font-variant:normal;font-weight:normal;font-stretch:normal;font-size:medium;line-height:normal;font-family:sans-serif;font-variant-ligatures:normal;font-variant-position:normal;font-variant-caps:normal;font-variant-numeric:normal;font-variant-alternates:normal;font-feature-settings:normal;text-indent:0;text-align:start;text-decoration:none;text-decoration-line:none;text-decoration-style:solid;text-decoration-color:#000000;letter-spacing:normal;word-spacing:normal;text-transform:none;writing-mode:lr-tb;direction:ltr;text-orientation:mixed;dominant-baseline:auto;baseline-shift:baseline;text-anchor:start;white-space:normal;shape-padding:0;clip-rule:nonzero;display:inline;overflow:visible;visibility:visible;opacity:1;isolation:auto;mix-blend-mode:normal;color-interpolation:sRGB;color-interpolation-filters:linearRGB;solid-color:#000000;solid-opacity:1;vector-effect:none;fill:none;fill-opacity:1;fill-rule:nonzero;stroke:#800080;stroke-width:0.37795275;stroke-linecap:butt;stroke-linejoin:miter;stroke-miterlimit:4;stroke-dasharray:none;stroke-dashoffset:0;stroke-opacity:1;color-rendering:auto;image-rendering:auto;shape-rendering:auto;text-rendering:auto;enable-background:accumulate"
   d="m 142.58546,133.12225 c -9.45907,0 -15.62841,7.15114 -19.17383,14.5039 -3.54541,7.35276 -5.35351,16.35017 -5.35351,26.2168 0,9.86662 1.8081,18.86404 5.35351,26.2168 3.54542,7.35275 9.71476,14.5039 19.17383,14.5039 9.45908,0 15.62842,-7.15115 19.17383,-14.5039 3.54541,-7.35276 5.35352,-16.35018 5.35352,-26.2168 0,-9.86663 -1.80811,-18.86404 -5.35352,-26.2168 -3.54541,-7.35276 -9.71475,-14.5039 -19.17383,-14.5039 z m 0,19.41796 c 0.44876,0.47313 1.22429,1.37024 2.15235,3.29493 1.91207,3.96541 3.47851,10.60349 3.47851,18.00781 0,7.40432 -1.56644,14.0424 -3.47851,18.00781 -0.92806,1.92469 -1.70359,2.82179 -2.15235,3.29492 -0.44882,-0.47326 -1.22258,-1.37076 -2.15039,-3.29492 -1.91207,-3.96541 -3.47851,-10.60349 -3.47851,-18.00781 0,-7.40432 1.56644,-14.0424 3.47851,-18.00781 0.92781,-1.92417 1.70157,-2.82166 2.15039,-3.29493 z"
   id="ellipse994"
   inkscape:connector-curvature="0" /><path
   style="color:#000000;font-style:normal;font-variant:normal;font-weight:normal;font-stretch:normal;font-size:medium;line-height:normal;font-family:sans-serif;font-variant-ligatures:normal;font-variant-position:normal;font-variant-caps:normal;font-variant-numeric:normal;font-variant-alternates:normal;font-feature-settings:normal;text-indent:0;text-align:start;text-decoration:none;text-decoration-line:none;text-decoration-style:solid;text-decoration-color:#000000;letter-spacing:normal;word-spacing:normal;text-transform:none;writing-mode:lr-tb;direction:ltr;text-orientation:mixed;dominant-baseline:auto;baseline-shift:baseline;text-anchor:start;white-space:normal;shape-padding:0;clip-rule:nonzero;display:inline;overflow:visible;visibility:visible;opacity:1;isolation:auto;mix-blend-mode:normal;color-interpolation:sRGB;color-interpolation-filters:linearRGB;solid-color:#000000;solid-opacity:1;vector-effect:none;fill:none;fill-opacity:1;fill-rule:nonzero;stroke:#800080;stroke-width:0.37795275;stroke-linecap:butt;stroke-linejoin:miter;stroke-miterlimit:4;stroke-dasharray:none;stroke-dashoffset:0;stroke-opacity:1;color-rendering:auto;image-rendering:auto;shape-rendering:auto;text-rendering:auto;enable-background:accumulate"
   d="m 344.12257,133.12225 c -9.45908,0 -15.62842,7.15114 -19.17383,14.5039 -3.54541,7.35276 -5.35351,16.35017 -5.35351,26.2168 0,9.86662 1.8081,18.86404 5.35351,26.2168 3.54541,7.35275 9.71475,14.5039 19.17383,14.5039 9.45908,0 15.62842,-7.15115 19.17383,-14.5039 3.54541,-7.35276 5.35352,-16.35018 5.35352,-26.2168 0,-9.86663 -1.80811,-18.86404 -5.35352,-26.2168 -3.54541,-7.35276 -9.71475,-14.5039 -19.17383,-14.5039 z m 0.002,19.41796 c 0.44883,0.47327 1.22259,1.37076 2.1504,3.29493 1.91207,3.96541 3.47851,10.60349 3.47851,18.00781 0,7.40432 -1.56644,14.0424 -3.47851,18.00781 -0.92781,1.92416 -1.70157,2.82166 -2.1504,3.29492 -0.44875,-0.47313 -1.22428,-1.37023 -2.15234,-3.29492 -1.91207,-3.96541 -3.48047,-10.60349 -3.48047,-18.00781 0,-7.40432 1.5684,-14.0424 3.48047,-18.00781 0.92806,-1.92469 1.70359,-2.8218 2.15234,-3.29493 z"
   id="ellipse996"
   inkscape:connector-curvature="0" /></svg>