<?xml version="1.0" encoding="UTF-8" standalone="no"?>
<svg
   xmlns:dc="http://purl.org/dc/elements/1.1/"
   xmlns:cc="http://creativecommons.org/ns#"
   xmlns:rdf="http://www.w3.org/1999/02/22-rdf-syntax-ns#"
   xmlns:svg="http://www.w3.org/2000/svg"
   xmlns="http://www.w3.org/2000/svg"
   xmlns:sodipodi="http://sodipodi.sourceforge.net/DTD/sodipodi-0.dtd"
   xmlns:inkscape="http://www.inkscape.org/namespaces/inkscape"
   id="svg8"
   version="1.1"
   viewBox="0 0 210 297"
   height="297mm"
   width="210mm"
   sodipodi:docname="capybara-side-plain-outline.svg"
   inkscape:version="0.92.5 (2060ec1f9f, 2020-04-08)">
  <sodipodi:namedview
     pagecolor="#ffffff"
     bordercolor="#666666"
     borderopacity="1"
     objecttolerance="10"
     gridtolerance="10"
     guidetolerance="10"
     inkscape:pageopacity="0"
     inkscape:pageshadow="2"
     inkscape:window-width="1920"
     inkscape:window-height="1016"
     id="namedview17"
     showgrid="false"
     inkscape:zoom="1.1638208"
     inkscape:cx="327.04894"
     inkscape:cy="526.82113"
     inkscape:window-x="0"
     inkscape:window-y="27"
     inkscape:window-maximized="1"
     inkscape:current-layer="svg8" />
  <defs
     id="defs2" />
  <metadata
     id="metadata5">
    <rdf:RDF>
      <cc:Work
         rdf:about="">
        <dc:format>image/svg+xml</dc:format>
        <dc:type
           rdf:resource="http://purl.org/dc/dcmitype/StillImage" />
        <dc:title />
      </cc:Work>
    </rdf:RDF>
  </metadata>
  <g
     id="layer1"
     style="fill:none;stroke-width:0.1;stroke-miterlimit:4;stroke-dasharray:none;stroke:#8800aa;stroke-opacity:1">
    <path
       style="color:#000000;font-style:normal;font-variant:normal;font-weight:normal;font-stretch:normal;font-size:medium;line-height:normal;font-family:sans-serif;font-variant-ligatures:normal;font-variant-position:normal;font-variant-caps:normal;font-variant-numeric:normal;font-variant-alternates:normal;font-feature-settings:normal;text-indent:0;text-align:start;text-decoration:none;text-decoration-line:none;text-decoration-style:solid;text-decoration-color:#000000;letter-spacing:normal;word-spacing:normal;text-transform:none;writing-mode:lr-tb;direction:ltr;text-orientation:mixed;dominant-baseline:auto;baseline-shift:baseline;text-anchor:start;white-space:normal;shape-padding:0;clip-rule:nonzero;display:inline;overflow:visible;visibility:visible;opacity:1;isolation:auto;mix-blend-mode:normal;color-interpolation:sRGB;color-interpolation-filters:linearRGB;solid-color:#000000;solid-opacity:1;vector-effect:none;fill:none;fill-opacity:1;fill-rule:nonzero;stroke:#8800aa;stroke-width:0.37795275;stroke-linecap:round;stroke-linejoin:miter;stroke-miterlimit:4;stroke-dasharray:none;stroke-dashoffset:0;stroke-opacity:1;color-rendering:auto;image-rendering:auto;shape-rendering:auto;text-rendering:auto;enable-background:accumulate"
       d="M 242.02539 368.68945 C 239.23886 368.75387 236.43337 369.38288 233.69531 370.90234 C 228.40488 373.83821 225.95669 378.99139 224.42383 384.05664 C 222.89097 389.12193 222.27131 394.5749 222.00977 399.72852 C 222.00627 399.79736 222.00726 399.86289 222.00391 399.93164 C 206.71106 400.79342 194.75536 405.40133 174.25977 409.87109 C 154.91316 414.09029 130.35402 425.8771 109.69141 438.17383 C 99.360094 444.32221 90.08306 450.5889 83.027344 456.24609 C 79.499487 459.07469 76.527895 461.73582 74.175781 464.31641 C 73.907128 464.61116 73.66567 464.89527 73.408203 465.18359 C 72.016742 465.45549 70.516237 465.9534 69.228516 466.81055 C 67.197503 468.16248 66.353599 469.96799 66.095703 471.27344 C 65.837826 472.57885 65.956309 473.61695 66.132812 474.66992 C 66.48582 476.77587 67.213675 478.98536 68.121094 481.88672 C 68.580396 483.35527 68.977214 484.64748 69.376953 485.82812 C 69.478889 486.43642 69.58556 487.05321 69.703125 487.68945 C 70.775978 493.4956 72.642058 500.26753 75.349609 507.54297 C 80.76472 522.09385 89.52286 538.6487 102.28516 552.55664 C 108.83073 559.68978 118.72096 560.34712 129.76367 560.15039 C 140.80638 559.95348 153.67667 558.21985 166.91211 556.52148 C 193.38298 553.12471 221.53903 550.82566 234.06055 557.44531 C 249.03618 565.36236 265.85035 593.46552 281.60742 621.96875 C 289.48596 636.2204 297.33638 650.5093 305.55859 662.5 C 313.44928 674.00719 321.5923 683.47699 331.49805 688.59375 C 335.26327 691.49426 340.00813 693.54559 345.80664 695.40039 C 352.39135 715.35228 354.60499 728.95339 346.41797 752.92383 C 345.76456 754.83691 340.48863 762.01222 335.47852 767.31055 C 330.4684 772.60888 325.82227 776.81836 325.82227 776.81836 A 6.6148346 6.6148346 0 0 0 330.50195 788.33398 L 377.93164 786.57812 A 6.6148346 6.6148346 0 0 0 384.19141 781.17383 C 384.19141 781.17383 390.25354 748.63435 394.02344 720.43555 C 398.76497 731.79658 402.80592 745.79673 402.05469 753.0332 C 401.81166 755.37511 398.64598 761.89451 395.22656 766.85938 C 391.80719 771.82424 388.50977 775.62305 388.50977 775.62305 A 6.6148346 6.6148346 0 0 0 393.63281 786.57812 L 429.89844 785.82422 A 6.6148346 6.6148346 0 0 0 436.35156 778.60547 C 434.3281 756.67173 439.93358 732.32095 436.46289 707.24414 C 489.71765 709.07947 550.72116 705.67221 594.80273 701.74023 C 597.30679 709.17486 600.52522 715.63458 602.9668 721.63086 C 606.49657 730.29973 608.53154 737.60072 606.47461 746.73633 C 605.6317 750.47999 600.18381 758.47822 594.72266 764.49023 C 589.26147 770.50229 584.13672 774.98828 584.13672 774.98828 A 6.6148346 6.6148346 0 0 0 588.42578 786.57812 L 633.22656 786.99023 A 6.6148346 6.6148346 0 0 0 639.83203 781.30664 C 643.09414 758.22117 644.9299 741.27289 648.60156 727.04883 C 650.3117 720.42369 652.39506 714.36743 655.2207 708.4043 C 655.39989 708.65192 660.69673 715.98627 666.07617 725.5 C 671.54795 735.17699 676.63996 747.37096 676.73438 753.71289 C 676.76083 755.47664 674.73401 761.50649 672.27539 766.17383 C 669.81673 770.84113 667.3457 774.48633 667.3457 774.48633 A 6.6148346 6.6148346 0 0 0 672.88086 784.82031 L 709.10352 784.40625 A 6.6148346 6.6148346 0 0 0 715.59375 776.9668 C 715.59375 776.9668 709.30407 726.69197 709.28906 702.66797 C 709.28174 690.07153 712.48487 663.55703 712.68555 661.90625 C 717.27565 658.86896 721.83805 655.72944 726.26367 652.50977 C 746.8477 637.53482 765.14531 621.85022 768.87695 603.88477 C 777.23111 563.66477 777.07031 512.45312 777.07031 512.45312 L 777.06836 511.77148 L 776.92773 511.10352 C 771.53907 485.44377 751.58795 467.12048 726.625 452.35742 C 701.67808 437.60388 671.15957 425.95293 642.04492 413.76758 L 642.03711 413.76367 C 626.99047 407.29834 611.00025 404.35178 594.36719 403.75 L 594.36523 403.75195 C 566.63858 402.74875 537.12865 408.26197 507.24219 414.85547 C 459.42379 425.40508 410.2427 438.91935 365.81055 436.08398 L 365.29492 436.05078 L 364.7793 436.09766 C 321.65522 440.09562 295.28752 419.57994 268.64258 408.18555 C 269.72859 404.24675 270.62731 400.25535 271.07031 396.41406 C 271.72594 390.72912 272.02449 384.93623 267.79297 379.93164 C 263.95307 375.39023 258.48432 372.46367 252.51953 370.54102 C 249.53714 369.57969 246.39525 368.79858 243.21875 368.69531 C 242.82169 368.68241 242.42347 368.68025 242.02539 368.68945 z M 242.95703 382.2168 C 244.47956 382.25367 246.44556 382.48578 248.45898 383.13477 C 252.48583 384.43277 256.5624 387.13278 257.69531 388.47266 C 257.39677 388.11965 258.41076 390.67223 257.92383 394.89453 C 257.43688 399.11683 256.05562 404.55693 254.38672 409.76172 C 251.04891 420.17122 246.71094 429.61914 246.71094 429.61914 A 6.6158454 6.6158454 0 1 0 258.72852 435.1543 C 258.72852 435.1543 261.55974 428.98973 264.53711 420.86914 C 288.3358 431.53088 318.76287 453.4616 365.52539 449.29688 C 413.02432 452.19479 462.94971 438.17383 510.0918 427.77344 C 557.417 417.33264 601.53733 410.76002 636.82031 425.92383 L 636.84961 425.93359 L 636.88086 425.94531 C 666.26533 438.24503 696.39243 449.84738 719.89062 463.74414 C 743.18102 477.51806 759.36498 493.11568 763.83008 513.29492 C 763.82252 515.65304 763.62071 564.14937 755.92578 601.19531 C 753.88257 611.03206 738.20885 627.46001 718.48047 641.8125 C 699.00927 655.9779 676.25073 668.98187 660.83984 677.25195 A 6.6148346 6.6148346 0 0 0 659.20117 678.23633 A 6.6148346 6.6148346 0 0 0 657.58398 680.03516 C 646.06538 694.68521 639.76041 708.37985 635.79492 723.74219 C 632.14258 737.89157 630.2478 753.92167 627.53516 773.71094 L 604.39258 773.49609 C 604.45192 773.43109 604.45043 773.4521 604.50977 773.38672 C 610.53909 766.74919 617.30377 758.85417 619.37695 749.64648 C 622.21784 737.02914 619.09438 726.17621 615.21484 716.64844 C 611.33531 707.12066 606.835 698.51666 605.01172 688.75195 C 601.94784 672.3431 598.43632 658.55595 600.31641 643.78125 C 600.93073 638.95381 604.07426 626.89258 604.07422 626.89258 A 6.6148346 6.6148346 0 0 0 597.36523 618.47656 A 6.6148346 6.6148346 0 0 0 591.29688 623.45898 C 591.29688 623.45898 588.11662 634.90413 587.19922 642.11328 C 585.05299 658.97919 588.64188 673.74532 591.54297 688.74805 C 536.05196 693.60534 454.0992 697.43034 396.81641 691.35352 C 396.99531 682.74846 396.5918 672.62305 396.5918 672.62305 A 6.6148346 6.6148346 0 0 0 389.63867 666.16406 A 6.6148346 6.6148346 0 0 0 383.37109 673.10352 C 383.37109 673.10352 383.82417 687.22246 383.46094 694.74219 A 6.6148346 6.6148346 0 0 0 383.17578 698.73828 C 381.04215 723.86812 373.4772 765.84423 372.07617 773.55469 L 346.79492 774.49219 C 351.69533 769.28302 356.70512 763.74117 358.9375 757.20508 C 370.28366 723.98511 362.94746 704.36948 352.31641 673.69336 A 6.6148346 6.6148346 0 1 0 339.81836 678.02734 C 339.86075 678.14968 339.89525 678.2493 339.9375 678.37109 C 339.81434 678.28466 339.67129 678.19372 339.56445 678.11133 L 338.99414 677.67188 L 338.34375 677.36523 C 331.87185 674.31837 324.13191 666.19296 316.46875 655.01758 C 308.80559 643.8422 301.06864 629.83177 293.18359 615.56836 C 277.41349 587.04154 261.99748 557.2502 240.24414 545.75 C 221.08716 535.62242 192.968 539.80883 166.88086 543.18555 C 169.00749 539.55792 170.38325 535.1993 169.16992 530.08594 A 6.6148346 6.6148346 0 0 0 162.40234 524.91211 A 6.6148346 6.6148346 0 0 0 156.30469 533.14258 C 156.44695 533.74205 155.17825 537.34546 152.39844 540.54688 C 151.00853 542.14758 149.49894 543.57739 148.39844 544.54688 C 147.85551 545.02518 147.41437 545.38928 147.13867 545.61133 C 140.70491 546.31641 134.70977 546.83153 129.5293 546.92383 C 119.7243 547.09844 113.41302 545.11908 112.03125 543.61328 C 100.78666 531.3593 92.671668 516.15992 87.748047 502.92969 C 86.708143 500.13536 85.817878 497.43716 85.058594 494.87305 C 86.732916 494.38376 87.91348 493.79357 89.080078 493.16211 C 91.432774 491.88867 93.72319 490.33185 96.753906 488.31445 C 99.784622 486.29709 102.12016 484.77499 104.06836 483.18555 C 105.04246 482.39086 105.96023 481.58464 106.77539 480.4043 C 107.59055 479.22395 108.31513 477.39356 107.70703 475.44922 C 107.09893 473.50492 105.35485 472.07354 103.91602 471.25977 C 102.47718 470.446 101.1673 470.00218 99.814453 469.58594 C 97.179647 468.77519 94.221887 468.13044 90.433594 467.28125 C 90.726377 467.0413 90.996063 466.81073 91.300781 466.56641 C 97.647916 461.47739 106.53446 455.44693 116.45508 449.54297 C 136.29632 437.73501 160.59562 426.38948 177.07812 422.79492 C 197.95303 418.24242 209.26101 414.04698 222.0625 413.17773 C 222.25803 416.88833 222.52734 419.29883 222.52734 419.29883 A 6.6148346 6.6148346 0 1 0 235.67383 417.85156 C 235.67383 417.85156 234.76711 409.41543 235.22461 400.40039 C 235.45335 395.89289 236.05576 391.28639 237.08398 387.88867 C 238.11221 384.49091 239.55864 382.78066 240.11719 382.4707 C 240.35518 382.33861 241.4345 382.17993 242.95703 382.2168 z M 82.738281 477.36523 C 83.813901 477.59843 84.200228 477.64576 85.525391 477.94336 C 86.850402 478.24081 87.208282 478.35926 88.277344 478.60742 C 87.45945 479.16256 87.2073 479.38171 86.1875 480.06055 C 85.167613 480.73943 84.846381 480.9017 84.013672 481.44531 C 83.755908 480.65687 83.6218 480.39246 83.316406 479.41602 C 83.011096 478.43976 82.974763 478.15697 82.738281 477.36523 z M 698.31055 671.02734 C 697.29151 680.46374 696.05573 693.70458 696.06055 702.67383 C 696.07566 725.4795 700.37138 761.0517 701.63477 771.26758 L 684.39062 771.4668 C 687.12262 766.25335 690.06403 760.31987 689.96289 753.52148 C 689.78828 741.78877 683.47115 729.38614 677.5918 718.98828 C 671.7124 708.59042 665.86914 700.54883 665.86914 700.54883 A 6.6150244 6.6150244 0 0 0 661.08789 697.84766 C 663.02148 694.82763 665.21015 691.75587 667.68945 688.58398 C 676.30146 683.95267 687.03296 677.93078 698.31055 671.02734 z M 401.66602 705.12891 C 408.5246 705.76136 415.65711 706.26413 422.98633 706.65625 C 426.28378 727.16368 422.08799 749.57686 423.00391 772.73633 L 406.91992 773.06836 C 410.58463 767.69134 414.4731 761.57016 415.2168 754.40625 C 416.52701 741.78463 411.26821 727.36095 406.1875 715.2168 C 404.64679 711.53411 403.09954 708.14255 401.66602 705.12891 z "
       transform="scale(0.26458333)"
       id="path833" />
    <path
       style="color:#000000;font-style:normal;font-variant:normal;font-weight:normal;font-stretch:normal;font-size:medium;line-height:normal;font-family:sans-serif;font-variant-ligatures:normal;font-variant-position:normal;font-variant-caps:normal;font-variant-numeric:normal;font-variant-alternates:normal;font-feature-settings:normal;text-indent:0;text-align:start;text-decoration:none;text-decoration-line:none;text-decoration-style:solid;text-decoration-color:#000000;letter-spacing:normal;word-spacing:normal;text-transform:none;writing-mode:lr-tb;direction:ltr;text-orientation:mixed;dominant-baseline:auto;baseline-shift:baseline;text-anchor:start;white-space:normal;shape-padding:0;clip-rule:nonzero;display:inline;overflow:visible;visibility:visible;opacity:1;isolation:auto;mix-blend-mode:normal;color-interpolation:sRGB;color-interpolation-filters:linearRGB;solid-color:#000000;solid-opacity:1;vector-effect:none;fill:none;fill-opacity:1;fill-rule:nonzero;stroke:#8800aa;stroke-width:0.1;stroke-linecap:round;stroke-linejoin:miter;stroke-miterlimit:4;stroke-dasharray:none;stroke-dashoffset:0;stroke-opacity:1;color-rendering:auto;image-rendering:auto;shape-rendering:auto;text-rendering:auto;enable-background:accumulate"
       d="m 53.392578,112.73047 c -1.1011,0 -2.103278,0.17149 -2.988281,0.55078 -0.442502,0.18964 -0.865372,0.42858 -1.253906,0.82227 -0.388535,0.39368 -0.759766,1.02726 -0.759766,1.77148 0,0.74422 0.371231,1.3778 0.759766,1.77148 0.388534,0.39369 0.811404,0.63458 1.253906,0.82422 0.885003,0.37929 1.887181,0.54883 2.988281,0.54883 1.1011,0 2.105231,-0.16954 2.990234,-0.54883 0.442502,-0.18964 0.865373,-0.43053 1.253907,-0.82422 0.388534,-0.39368 0.759765,-1.02726 0.759765,-1.77148 0,-0.74422 -0.371231,-1.3778 -0.759765,-1.77148 -0.388534,-0.39369 -0.811405,-0.63263 -1.253907,-0.82227 -0.885003,-0.37929 -1.889134,-0.55078 -2.990234,-0.55078 z"
       id="path853"
       inkscape:connector-curvature="0" />
  </g>
</svg>
